<svg xmlns="http://www.w3.org/2000/svg" width="480pt" height="290pt" viewBox="0 0 480 290" version="1.1" xmlns:xlink="http://www.w3.org/1999/xlink">
  <g id="surface2" transform="matrix(1,0,0,1,0,0)">
    <path style="stroke:none;fill-rule:evenodd;fill:rgb(46.274510%,46.274510%,46.274510%);fill-opacity:1" d="M 294.398438 62.500000 C 295.500000 61.964844 296.183594 61.035156 296.449219 59.699219 C 296.714844 58.398438 296.500000 57.015625 295.800781 55.550781 C 295.035156 54.117188 294.035156 53.101562 292.800781 52.500000 C 291.535156 51.867188 290.332031 51.785156 289.199219 52.250000 C 288.101562 52.816406 287.417969 53.750000 287.148438 55.050781 C 286.882812 56.351562 287.117188 57.734375 287.851562 59.199219 C 288.617188 60.632812 289.617188 61.667969 290.851562 62.300781 C 292.082031 62.933594 293.265625 63.000000 294.398438 62.500000 "/>
    <path style="stroke:none;fill-rule:evenodd;fill:rgb(46.274510%,46.274510%,46.274510%);fill-opacity:1" d="M 267.500000 95.699219 C 267.500000 95.332031 267.332031 95.101562 267.000000 95.000000 C 263.964844 94.464844 261.015625 94.066406 258.148438 93.800781 C 255.382812 93.566406 252.667969 93.449219 250.000000 93.449219 C 241.632812 93.449219 233.800781 94.667969 226.500000 97.101562 C 219.167969 99.535156 212.484375 103.101562 206.449219 107.800781 L 202.851562 153.648438 L 203.101562 153.648438 C 203.101562 153.617188 203.101562 153.601562 203.101562 153.601562 C 205.699219 142.167969 209.984375 132.234375 215.949219 123.800781 C 221.949219 115.398438 229.285156 108.832031 237.949219 104.101562 C 246.617188 99.332031 256.265625 96.734375 266.898438 96.300781 C 267.265625 96.265625 267.464844 96.066406 267.500000 95.699219 "/>
    <path style="stroke:none;fill-rule:evenodd;fill:rgb(46.274510%,46.274510%,46.274510%);fill-opacity:1" d="M 310.898438 121.800781 C 311.035156 121.933594 311.101562 122.101562 311.101562 122.300781 L 311.148438 122.300781 L 302.750000 67.101562 C 302.550781 65.964844 302.015625 65.117188 301.148438 64.550781 C 300.316406 63.984375 299.332031 63.832031 298.199219 64.101562 L 272.550781 70.800781 C 271.449219 71.066406 270.917969 71.300781 270.949219 71.500000 C 270.984375 71.699219 271.566406 71.800781 272.699219 71.800781 L 284.949219 71.800781 C 286.117188 71.832031 287.117188 72.234375 287.949219 73.000000 C 288.816406 73.765625 289.332031 74.714844 289.500000 75.851562 L 293.199219 107.449219 C 299.265625 110.882812 305.167969 115.667969 310.898438 121.800781 "/>
    <path style="stroke:none;fill-rule:evenodd;fill:rgb(31.372549%,0.000000%,40.784314%);fill-opacity:1" d="M 190.5 76.148438 C 191.667969 75.816406 192.601562 75.167969 193.300781 74.199219 C 194.035156 73.234375 194.484375 72.066406 194.648438 70.699219 C 194.816406 69.300781 194.667969 67.851562 194.199219 66.351562 C 193.699219 64.851562 192.964844 63.566406 192 62.5 C 191.035156 61.433594 189.964844 60.667969 188.800781 60.199219 C 187.601562 59.734375 186.417969 59.632812 185.25 59.898438 C 184.082031 60.234375 183.148438 60.882812 182.449219 61.851562 C 181.714844 62.851562 181.265625 64.035156 181.101562 65.398438 C 180.933594 66.765625 181.082031 68.199219 181.550781 69.699219 C 182.050781 71.199219 182.785156 72.484375 183.75 73.550781 C 184.714844 74.617188 185.785156 75.398438 186.949219 75.898438 C 188.148438 76.367188 189.332031 76.449219 190.5 76.148438 "/>
    <path style="stroke:none;fill-rule:evenodd;fill:rgb(31.372549%,0.000000%,40.784314%);fill-opacity:1" d="M 302.949219 121.800781 C 297.183594 115.667969 291.265625 110.882812 285.199219 107.449219 C 277.5 103.082031 269.617188 100.898438 261.550781 100.898438 C 257.785156 100.933594 254.265625 101.367188 251 102.199219 C 247.765625 103 244.832031 104.015625 242.199219 105.25 C 239.601562 106.449219 237.351562 107.667969 235.449219 108.898438 C 233.582031 110.101562 232.148438 111.117188 231.148438 111.949219 C 230.117188 112.785156 229.582031 113.234375 229.550781 113.300781 C 229.316406 113.566406 229.285156 113.851562 229.449219 114.148438 C 229.683594 114.417969 229.964844 114.484375 230.300781 114.351562 C 237.800781 110.515625 245.183594 108.601562 252.449219 108.601562 C 256.316406 108.632812 259.867188 109.101562 263.101562 110 C 266.332031 110.933594 269.214844 112.066406 271.75 113.398438 C 274.285156 114.765625 276.433594 116.132812 278.199219 117.5 C 279.964844 118.832031 281.316406 119.964844 282.25 120.898438 C 283.183594 121.832031 283.667969 122.332031 283.699219 122.398438 C 283.800781 122.535156 283.832031 122.582031 283.800781 122.550781 C 283.964844 122.582031 284.601562 122.617188 285.699219 122.648438 C 286.800781 122.683594 288.117188 122.699219 289.648438 122.699219 L 296.949219 122.851562 C 298.515625 122.882812 299.816406 122.898438 300.851562 122.898438 C 301.882812 122.898438 302.417969 122.898438 302.449219 122.898438 C 302.449219 122.933594 302.449219 122.933594 302.449219 122.898438 C 302.75 122.898438 302.949219 122.785156 303.050781 122.550781 C 303.082031 122.449219 303.101562 122.367188 303.101562 122.300781 C 303.101562 122.132812 303.050781 121.964844 302.949219 121.800781 "/>
    <path style="stroke:none;fill-rule:evenodd;fill:rgb(31.372549%,0.000000%,40.784314%);fill-opacity:1" d="M 201.449219 94.648438 C 201.617188 93.082031 202.214844 91.566406 203.25 90.101562 C 204.25 88.601562 205.449219 87.5 206.851562 86.800781 L 225.949219 77.5 C 227.316406 76.832031 227.949219 76.332031 227.851562 76 C 227.75 75.699219 226.949219 75.632812 225.449219 75.800781 L 187 80.550781 C 185.464844 80.785156 184.148438 81.464844 183.050781 82.601562 C 181.917969 83.765625 181.265625 85.117188 181.101562 86.648438 L 175.351562 153.949219 L 196.800781 153.949219 L 196.851562 153.601562 L 200.449219 107.800781 L 201.449219 94.648438 "/>
  </g>
  <g id="surface4">
    <text style="fill:rgb(80,0,104)" font-family="Futura Md BT" font-size="50" transform="matrix(1,0,0,1,91.25,205.85)" xml:space="preserve"><![CDATA[Handelwijzer]]></text>
  </g>
</svg>